<svg xmlns="http://www.w3.org/2000/svg" viewBox="0 0 800 600">
  <!-- Background -->
  <rect width="800" height="600" fill="#f8f9fa" />
  
  <!-- Title -->
  <text x="400" y="40" font-family="Arial" font-size="24" text-anchor="middle" font-weight="bold">Workout Planner Architecture</text>
  
  <!-- Frontend Layer -->
  <rect x="50" y="80" width="700" height="130" rx="10" fill="#e3f2fd" stroke="#2196f3" stroke-width="2" />
  <text x="400" y="100" font-family="Arial" font-size="18" text-anchor="middle" font-weight="bold">Presentation Layer (Streamlit)</text>
  
  <rect x="100" y="120" width="150" height="70" rx="5" fill="#bbdefb" stroke="#1e88e5" stroke-width="1" />
  <text x="175" y="150" font-family="Arial" font-size="14" text-anchor="middle">User Input Forms</text>
  <text x="175" y="170" font-family="Arial" font-size="12" text-anchor="middle">Workout Preferences</text>
  
  <rect x="325" y="120" width="150" height="70" rx="5" fill="#bbdefb" stroke="#1e88e5" stroke-width="1" />
  <text x="400" y="150" font-family="Arial" font-size="14" text-anchor="middle">Display Components</text>
  <text x="400" y="170" font-family="Arial" font-size="12" text-anchor="middle">Workout Plan Display</text>
  
  <rect x="550" y="120" width="150" height="70" rx="5" fill="#bbdefb" stroke="#1e88e5" stroke-width="1" />
  <text x="625" y="150" font-family="Arial" font-size="14" text-anchor="middle">History Manager</text>
  <text x="625" y="170" font-family="Arial" font-size="12" text-anchor="middle">Session State Storage</text>
  
  <!-- Application Layer -->
  <rect x="50" y="240" width="700" height="130" rx="10" fill="#e8f5e9" stroke="#4caf50" stroke-width="2" />
  <text x="400" y="260" font-family="Arial" font-size="18" text-anchor="middle" font-weight="bold">Application Layer</text>
  
  <rect x="100" y="280" width="200" height="70" rx="5" fill="#c8e6c9" stroke="#43a047" stroke-width="1" />
  <text x="200" y="310" font-family="Arial" font-size="14" text-anchor="middle">Workout Generator</text>
  <text x="200" y="330" font-family="Arial" font-size="12" text-anchor="middle">generate_workout()</text>
  
  <rect x="500" y="280" width="200" height="70" rx="5" fill="#c8e6c9" stroke="#43a047" stroke-width="1" />
  <text x="600" y="310" font-family="Arial" font-size="14" text-anchor="middle">PDF Creator</text>
  <text x="600" y="330" font-family="Arial" font-size="12" text-anchor="middle">create_pdf()</text>
  
  <!-- Integration Layer -->
  <rect x="50" y="400" width="700" height="130" rx="10" fill="#fff3e0" stroke="#ff9800" stroke-width="2" />
  <text x="400" y="420" font-family="Arial" font-size="18" text-anchor="middle" font-weight="bold">Integration Layer</text>
  
  <rect x="100" y="440" width="250" height="70" rx="5" fill="#ffe0b2" stroke="#f57c00" stroke-width="1" />
  <text x="225" y="470" font-family="Arial" font-size="14" text-anchor="middle">LangChain Integration</text>
  <text x="225" y="490" font-family="Arial" font-size="12" text-anchor="middle">ChatOpenAI, PromptTemplate</text>
  
  <rect x="450" y="440" width="250" height="70" rx="5" fill="#ffe0b2" stroke="#f57c00" stroke-width="1" />
  <text x="575" y="470" font-family="Arial" font-size="14" text-anchor="middle">External Services</text>
  <text x="575" y="490" font-family="Arial" font-size="12" text-anchor="middle">OpenAI API</text>
  
  <!-- Data Flow Arrows -->
  <!-- User Input to Workout Generator -->
  <path d="M175 190 L175 220 L200 220 L200 280" fill="none" stroke="#616161" stroke-width="2" stroke-dasharray="5,3" />
  <polygon points="200,280 195,270 205,270" fill="#616161" />
  
  <!-- Workout Generator to Display -->
  <path d="M300 315 L400 315 L400 190" fill="none" stroke="#616161" stroke-width="2" stroke-dasharray="5,3" />
  <polygon points="400,190 395,200 405,200" fill="#616161" />
  
  <!-- Workout Generator to PDF Creator -->
  <path d="M300 315 L500 315" fill="none" stroke="#616161" stroke-width="2" stroke-dasharray="5,3" />
  <polygon points="500,315 490,310 490,320" fill="#616161" />
  
  <!-- PDF Creator to Display -->
  <path d="M600 280 L600 200 L475 200" fill="none" stroke="#616161" stroke-width="2" stroke-dasharray="5,3" />
  <polygon points="475,200 485,195 485,205" fill="#616161" />
  
  <!-- Display to History Manager -->
  <path d="M475 150 L550 150" fill="none" stroke="#616161" stroke-width="2" stroke-dasharray="5,3" />
  <polygon points="550,150 540,145 540,155" fill="#616161" />
  
  <!-- Workout Generator to LangChain -->
  <path d="M200 350 L200 380 L225 380 L225 440" fill="none" stroke="#616161" stroke-width="2" stroke-dasharray="5,3" />
  <polygon points="225,440 220,430 230,430" fill="#616161" />
  
  <!-- LangChain to OpenAI -->
  <path d="M350 475 L450 475" fill="none" stroke="#616161" stroke-width="2" stroke-dasharray="5,3" />
  <polygon points="450,475 440,470 440,480" fill="#616161" />

  <!-- Legend -->
  <rect x="600" y="520" width="150" height="60" rx="5" fill="#ffffff" stroke="#9e9e9e" stroke-width="1" />
  <text x="675" y="535" font-family="Arial" font-size="12" text-anchor="middle" font-weight="bold">Legend</text>
  
  <line x1="610" y1="550" x2="630" y2="550" stroke="#616161" stroke-width="2" stroke-dasharray="5,3" />
  <polygon points="630,550 625,545 625,555" fill="#616161" />
  <text x="685" y="553" font-family="Arial" font-size="10" text-anchor="middle">Data Flow</text>
</svg>
